HIERARCHY
ROOT Hips
{
    OFFSET   0.000000   0.000000   0.000000
    CHANNELS 6 Xposition Yposition Zposition Zrotation Xrotation Yrotation
    JOINT Chest
    {
        OFFSET   0.000000   8.007230   0.000000
        CHANNELS 3 Zrotation Xrotation Yrotation
        JOINT Chest2
        {
            OFFSET   0.000000  22.077100   0.000000
            CHANNELS 3 Zrotation Xrotation Yrotation
            JOINT Neck
            {
                OFFSET   0.000000  23.255100   0.000000
                CHANNELS 3 Zrotation Xrotation Yrotation
                JOINT Head
                {
                    OFFSET   0.000000  14.370100   1.956600
                    CHANNELS 3 Zrotation Xrotation Yrotation
                    End Site
                    {
                        OFFSET   0.000000  19.566000   0.000000
                    }
                }
            }
            JOINT LeftCollar
            {
                OFFSET   3.911900  19.017000  -0.467063
                CHANNELS 3 Zrotation Xrotation Yrotation
                JOINT LeftShoulder
                {
                    OFFSET  10.383700   0.000000   0.000000
                    CHANNELS 3 Zrotation Xrotation Yrotation
                    JOINT LeftElbow
                    {
                        OFFSET  26.662100   0.001193   0.000980
                        CHANNELS 3 Zrotation Xrotation Yrotation
                        JOINT LeftWrist
                        {
                            OFFSET  28.869000  -0.000059  -0.000082
                            CHANNELS 3 Zrotation Xrotation Yrotation
                            JOINT LeftFinger0
                            {
                                OFFSET   2.044650  -2.323450   3.252850
                                CHANNELS 3 Zrotation Xrotation Yrotation
                                JOINT LeftFinger01
                                {
                                    OFFSET   3.088130   0.000000   0.000000
                                    CHANNELS 3 Zrotation Xrotation Yrotation
                                    JOINT LeftFinger02
                                    {
                                        OFFSET   2.639460   0.000000   0.000000
                                        CHANNELS 3 Zrotation Xrotation Yrotation
                                        End Site
                                        {
                                            OFFSET   2.582190   0.000000   0.000000
                                        }
                                    }
                                }
                            }
                            JOINT LeftFinger1
                            {
                                OFFSET   8.364480   0.000000   3.252850
                                CHANNELS 3 Zrotation Xrotation Yrotation
                                JOINT LeftFinger11
                                {
                                    OFFSET   4.646930   0.000000   0.000000
                                    CHANNELS 3 Zrotation Xrotation Yrotation
                                    JOINT LeftFinger12
                                    {
                                        OFFSET   2.323470   0.000000   0.000000
                                        CHANNELS 3 Zrotation Xrotation Yrotation
                                        End Site
                                        {
                                            OFFSET   2.273050   0.000000   0.000000
                                        }
                                    }
                                }
                            }
                            JOINT LeftFinger2
                            {
                                OFFSET   8.364490   0.000016   1.078090
                                CHANNELS 3 Zrotation Xrotation Yrotation
                                JOINT LeftFinger21
                                {
                                    OFFSET   5.111610   0.000000   0.000000
                                    CHANNELS 3 Zrotation Xrotation Yrotation
                                    JOINT LeftFinger22
                                    {
                                        OFFSET   2.788150   0.000016   0.000000
                                        CHANNELS 3 Zrotation Xrotation Yrotation
                                        End Site
                                        {
                                            OFFSET   2.727660   0.000000   0.000000
                                        }
                                    }
                                }
                            }
                            JOINT LeftFinger3
                            {
                                OFFSET   7.899780   0.000015  -1.078090
                                CHANNELS 3 Zrotation Xrotation Yrotation
                                JOINT LeftFinger31
                                {
                                    OFFSET   4.646930   0.000000   0.000000
                                    CHANNELS 3 Zrotation Xrotation Yrotation
                                    JOINT LeftFinger32
                                    {
                                        OFFSET   2.323470   0.000000   0.000000
                                        CHANNELS 3 Zrotation Xrotation Yrotation
                                        End Site
                                        {
                                            OFFSET   2.273050   0.000000   0.000000
                                        }
                                    }
                                }
                            }
                            JOINT LeftFinger4
                            {
                                OFFSET   7.435090   0.000000  -3.252850
                                CHANNELS 3 Zrotation Xrotation Yrotation
                                JOINT LeftFinger41
                                {
                                    OFFSET   3.717550   0.000000   0.000000
                                    CHANNELS 3 Zrotation Xrotation Yrotation
                                    JOINT LeftFinger42
                                    {
                                        OFFSET   1.858770   0.000000   0.000000
                                        CHANNELS 3 Zrotation Xrotation Yrotation
                                        End Site
                                        {
                                            OFFSET   1.818440   0.000000   0.000000
                                        }
                                    }
                                }
                            }
                        }
                    }
                }
            }
            JOINT RightCollar
            {
                OFFSET  -3.911910  19.017000  -0.467062
                CHANNELS 3 Zrotation Xrotation Yrotation
                JOINT RightShoulder
                {
                    OFFSET -10.383700   0.000014   0.000000
                    CHANNELS 3 Zrotation Xrotation Yrotation
                    JOINT RightElbow
                    {
                        OFFSET -26.662100   0.001225   0.001091
                        CHANNELS 3 Zrotation Xrotation Yrotation
                        JOINT RightWrist
                        {
                            OFFSET -28.869000  -0.000020  -0.000085
                            CHANNELS 3 Zrotation Xrotation Yrotation
                            JOINT RightFinger0
                            {
                                OFFSET  -2.044650  -2.323490   3.252850
                                CHANNELS 3 Zrotation Xrotation Yrotation
                                JOINT RightFinger01
                                {
                                    OFFSET  -3.088130   0.000000   0.000000
                                    CHANNELS 3 Zrotation Xrotation Yrotation
                                    JOINT RightFinger02
                                    {
                                        OFFSET  -2.639460   0.000000   0.000000
                                        CHANNELS 3 Zrotation Xrotation Yrotation
                                        End Site
                                        {
                                            OFFSET  -2.582190   0.000000   0.000000
                                        }
                                    }
                                }
                            }
                            JOINT RightFinger1
                            {
                                OFFSET  -8.364480   0.000000   3.252850
                                CHANNELS 3 Zrotation Xrotation Yrotation
                                JOINT RightFinger11
                                {
                                    OFFSET  -4.646930   0.000000   0.000000
                                    CHANNELS 3 Zrotation Xrotation Yrotation
                                    JOINT RightFinger12
                                    {
                                        OFFSET  -2.323470   0.000000   0.000000
                                        CHANNELS 3 Zrotation Xrotation Yrotation
                                        End Site
                                        {
                                            OFFSET  -2.273050   0.000000   0.000000
                                        }
                                    }
                                }
                            }
                            JOINT RightFinger2
                            {
                                OFFSET  -8.364480   0.000000   1.078090
                                CHANNELS 3 Zrotation Xrotation Yrotation
                                JOINT RightFinger21
                                {
                                    OFFSET  -5.111620   0.000000   0.000000
                                    CHANNELS 3 Zrotation Xrotation Yrotation
                                    JOINT RightFinger22
                                    {
                                        OFFSET  -2.788160   0.000000   0.000000
                                        CHANNELS 3 Zrotation Xrotation Yrotation
                                        End Site
                                        {
                                            OFFSET  -2.727660   0.000000   0.000000
                                        }
                                    }
                                }
                            }
                            JOINT RightFinger3
                            {
                                OFFSET  -7.899780   0.000000  -1.078090
                                CHANNELS 3 Zrotation Xrotation Yrotation
                                JOINT RightFinger31
                                {
                                    OFFSET  -4.646930   0.000000   0.000000
                                    CHANNELS 3 Zrotation Xrotation Yrotation
                                    JOINT RightFinger32
                                    {
                                        OFFSET  -2.323470   0.000000   0.000000
                                        CHANNELS 3 Zrotation Xrotation Yrotation
                                        End Site
                                        {
                                            OFFSET  -2.273050   0.000000   0.000000
                                        }
                                    }
                                }
                            }
                            JOINT RightFinger4
                            {
                                OFFSET  -7.435090   0.000000  -3.252850
                                CHANNELS 3 Zrotation Xrotation Yrotation
                                JOINT RightFinger41
                                {
                                    OFFSET  -3.717550   0.000000   0.000000
                                    CHANNELS 3 Zrotation Xrotation Yrotation
                                    JOINT RightFinger42
                                    {
                                        OFFSET  -1.858760   0.000000   0.000000
                                        CHANNELS 3 Zrotation Xrotation Yrotation
                                        End Site
                                        {
                                            OFFSET  -1.818440   0.000000   0.000000
                                        }
                                    }
                                }
                            }
                        }
                    }
                }
            }
        }
    }
    JOINT LeftHip
    {
        OFFSET   9.783030   0.000000   0.000000
        CHANNELS 3 Zrotation Xrotation Yrotation
        JOINT LeftKnee
        {
            OFFSET   0.000063 -41.789100   0.000608
            CHANNELS 3 Zrotation Xrotation Yrotation
            JOINT LeftAnkle
            {
                OFFSET   0.000048 -41.133200  -0.000184
                CHANNELS 3 Zrotation Xrotation Yrotation
                JOINT LeftToe
                {
                    OFFSET   0.000000  -6.358960  14.674500
                    CHANNELS 3 Zrotation Xrotation Yrotation
                    End Site
                    {
                        OFFSET   0.000000   0.000000   3.913200
                    }
                }
            }
        }
    }
    JOINT RightHip
    {
        OFFSET  -9.783030   0.000000   0.000000
        CHANNELS 3 Zrotation Xrotation Yrotation
        JOINT RightKnee
        {
            OFFSET   0.000071 -41.789100   0.001239
            CHANNELS 3 Zrotation Xrotation Yrotation
            JOINT RightAnkle
            {
                OFFSET   0.000037 -41.133200  -0.000166
                CHANNELS 3 Zrotation Xrotation Yrotation
                JOINT RightToe
                {
                    OFFSET   0.000000  -6.358960  14.674500
                    CHANNELS 3 Zrotation Xrotation Yrotation
                    End Site
                    {
                        OFFSET   0.000000   0.000000   3.913200
                    }
                }
            }
        }
    }
}
MOTION
Frames: 4
Frame Time:   0.016667
 -1.897140  89.602400  -2.730650  -3.912900 -13.129000  -4.641810   1.200420   7.247420   0.598796   2.352350  14.505600   1.055830   4.151080   1.266270  -0.091899   6.828780   2.528170   5.336160  -5.334380  -3.653000  -3.490670 -25.408800  24.801100 -71.600300  42.177900  -0.282492 -79.284400  29.555600  43.337000 -19.999600  39.258500  25.677000 -58.033300 -25.367900   0.072054   0.034314  -7.683950   0.034693   0.010895   6.036140  -1.271160  -8.512990  -0.000000  -0.003079  -0.002174  -0.000000  -0.002151  -0.000204  -2.296740  -0.059883   0.068349  -2.245420   0.009511   0.000125  -1.495430   0.006375   0.002829  -3.739570  -1.095620  11.827800  -3.802430   0.067014  -0.002496  -2.532430   0.044660   0.004302  -9.475380  -2.346050  13.726600 -14.595300   0.040688   0.011025  -9.720470   0.025469   0.011792  10.071100   0.564241  12.042500  26.267100  21.593100  59.108300 -37.149700  -0.677960  60.416000 -69.727500  19.822400  59.019900 -40.874500  36.852000  74.790500  25.966800   0.018237  -0.008782   7.983450   0.008927  -0.004303   4.785050   0.270561   6.669160   3.960770   0.035040  -0.010184   2.772560   0.024044  -0.012937   5.259330  -0.906484  -8.868180   5.345820   0.024131  -0.012470   3.560310   0.015506  -0.003089   2.386710  -0.474280 -10.817700   2.393190   0.048324  -0.002977   1.593850   0.032462  -0.002915   8.325270  -3.351480 -20.366400  13.338100   0.034240  -0.023539   8.883160   0.020278  -0.017623   3.534550  15.014500   3.160450   1.544320   0.113183   8.555430  -2.867190  -2.673430   2.219720  -0.000000   0.000000   0.000000   3.954130  13.864500  -7.426300  -0.139550   1.822390  -7.403470  -0.634833  -3.597160   1.742120   0.000000   0.000000   0.000000
 -1.921810  89.589500  -2.720980  -3.910960 -13.130700  -4.620470   1.192810   7.244000   0.610447   2.335380  14.498900   1.080640   4.144650   1.298920  -0.092823   6.816700   2.594040   5.300930  -5.335910  -3.653070  -3.488350 -25.388000  25.111400 -71.534700  42.500800  -0.062580 -79.134400  30.559500  44.421300 -14.266300  39.202300  27.391300 -56.805400 -27.156700   0.068472   0.033837  -8.578370   0.032701   0.011316   4.203380  -0.336986  -3.619770  -0.000000  -0.003155  -0.002182  -0.000000  -0.002213  -0.000181  -2.832990  -0.394142   5.148060  -2.796810  -0.030445   0.000093  -1.862660  -0.020284   0.003170  -5.951130  -1.818490  16.034200  -6.228830   0.009101  -0.002381  -4.148400   0.006204   0.004727 -10.146500  -2.905540  15.845900 -15.762500   0.017542   0.004826 -10.497800   0.010948   0.005244  10.045300   0.524836  11.971200  27.039100  21.282700  58.742300 -36.206100  -0.229951  60.773300 -72.473400  21.460000  56.994600 -39.287100  35.281300  69.925600  30.700200   0.015771  -0.022480  10.350200   0.005385  -0.011796   6.685270   0.007491   0.935299   5.561250   0.026152  -0.017616   3.892910   0.017467  -0.015018   5.792770  -1.371970 -13.394000   6.012260   0.012726  -0.013363   4.004160   0.007852  -0.003074   3.307500  -0.763720 -13.550200   3.373410   0.043499  -0.003272   2.246680   0.029173  -0.003301   9.520540  -4.497190 -25.063900  15.855100   0.043276  -0.035605  10.559500   0.024147  -0.028033   3.528450  15.062500   3.174350   1.544280   0.053316   8.552850  -2.857860  -2.658180   2.194430  -0.000000   0.000000   0.000000   3.959850  13.873200  -7.416670  -0.145557   1.837250  -7.383690  -0.639685  -3.621120   1.694080   0.000000   0.000000   0.000000
 -1.948060  89.578700  -2.713690  -3.908740 -13.139300  -4.592810   1.188340   7.243510   0.615840   2.325680  14.498000   1.091980   4.117170   1.312710  -0.092956   6.772750   2.622520   5.052520  -5.346610  -3.653540  -3.472060 -25.817600  25.504900 -71.343600  42.276900   0.266948 -78.933600  31.697800  45.869400  -8.047930  39.183400  28.784300 -56.149100 -29.049500   0.054958   0.030496  -9.524750   0.025905   0.011376   2.429330   0.154298  -1.369470  -0.000000  -0.003229  -0.002189  -0.000000  -0.002270  -0.000157  -3.117870  -0.615420   9.936500  -3.138710  -0.068027   0.000062  -2.090370  -0.045369   0.003515  -7.298970  -2.237110  17.697000  -7.722390  -0.046511  -0.002223  -5.143110  -0.030726   0.005118 -10.491700  -3.336590  17.446600 -16.482700  -0.014602  -0.003276 -10.977400  -0.009226  -0.003781  10.054600   0.439255  11.933200  28.137100  21.018700  58.233300 -35.297900   0.234579  61.267400 -74.786600  23.892000  54.287700 -37.713300  32.991000  65.077700  33.694100   0.014035  -0.036179  11.847100   0.003366  -0.019289   7.937860  -0.327333  -3.542640   6.573370   0.021723  -0.021936   4.601380   0.014153  -0.015904   5.950670  -1.610350 -15.731000   6.262550   0.005681  -0.013491   4.170850   0.003171  -0.002963   4.056970  -1.018980 -14.918800   4.192450   0.033647  -0.003405   2.792170   0.022515  -0.003490  10.546900  -5.458360 -27.703600  18.005700   0.058809  -0.047446  11.991800   0.031273  -0.040499   3.523640  15.102100   3.184900   1.547750   0.001263   8.546480  -2.848540  -2.642930   2.166490  -0.000000   0.000000   0.000000   3.967040  13.888200  -7.413440  -0.146130   1.862300  -7.371000  -0.646236  -3.648850   1.646880   0.000000   0.000000   0.000000
 -1.977140  89.569200  -2.706020  -3.903720 -13.160600  -4.560520   1.186910   7.257640   0.606066   2.324090  14.526100   1.071990   4.055850   1.300540  -0.091597   6.670790   2.598950   4.241550  -5.398730  -3.683060  -3.391680 -27.082300  25.801000 -70.886700  41.583400   0.843088 -78.879600  32.105900  47.980400  -1.263380  38.685600  28.803400 -55.808500 -30.326400   0.018807   0.013817 -10.163200   0.008682   0.005420   1.317970   0.053465  -1.449080  -0.000000  -0.003305  -0.002198  -0.000000  -0.002318  -0.000131  -2.567630  -0.591045  13.762400  -2.446660  -0.066567   0.000037  -1.636660  -0.044400   0.003868  -7.247390  -2.088010  16.038100  -7.576800  -0.052383  -0.002121  -5.046150  -0.034680   0.005476 -10.223600  -3.537870  18.960700 -16.253600  -0.027444  -0.006024 -10.824900  -0.017313  -0.007143  10.114900   0.330668  11.944100  29.553300  20.859500  57.681700 -34.544200   0.609980  61.954800 -75.856900  27.158100  50.072800 -36.109700  30.075500  60.882900  34.164200   0.005237  -0.017666  12.082100   0.000873  -0.010911   8.124620  -0.605389  -5.197870   6.704350   0.030724  -0.020902   4.693050   0.020364  -0.015707   5.912060  -1.512570 -14.657600   6.145260   0.008529  -0.008413   4.092740   0.005348  -0.002004   4.656660  -1.179920 -14.636800   4.810850   0.021932  -0.002152   3.204010   0.014661  -0.002318  11.421500  -6.079940 -27.709900  19.422400   0.075762  -0.053402  12.935300   0.040428  -0.046840   3.523370  15.097000   3.185960   1.552130   0.078955   8.536230  -2.847750  -2.695310   2.139640  -0.000000   0.000000  -0.000000   3.973790  13.915100  -7.414510  -0.139964   1.883870  -7.377430  -0.652224  -3.679980   1.613430   0.000000   0.000000  -0.000000
